<svg width="21" height="21" viewBox="0 0 21 21" fill="none" xmlns="http://www.w3.org/2000/svg">
<path d="M6.75348 2.625C6.75348 2.38338 6.93847 2.1875 7.16667 2.1875C7.39488 2.1875 7.57987 2.38338 7.57987 2.625V5.25C7.57987 5.49163 7.39488 5.6875 7.16667 5.6875C6.93847 5.6875 6.75348 5.49163 6.75348 5.25V2.625Z" fill="#4B4B4B"/>
<path d="M13.3646 2.625C13.3646 2.38338 13.5496 2.1875 13.7778 2.1875C14.006 2.1875 14.191 2.38338 14.191 2.625V5.25C14.191 5.49163 14.006 5.6875 13.7778 5.6875C13.5496 5.6875 13.3646 5.49163 13.3646 5.25V2.625Z" fill="#4B4B4B"/>
<path fill-rule="evenodd" clip-rule="evenodd" d="M7.57984 10.5H6.75345V11.375H7.57984V10.5ZM6.75345 9.625C6.29704 9.625 5.92706 10.0167 5.92706 10.5V11.375C5.92706 11.8583 6.29704 12.25 6.75345 12.25H7.57984C8.03626 12.25 8.40623 11.8583 8.40623 11.375V10.5C8.40623 10.0167 8.03626 9.625 7.57984 9.625H6.75345Z" fill="#4B4B4B"/>
<path fill-rule="evenodd" clip-rule="evenodd" d="M10.8854 10.5H10.059V11.375H10.8854V10.5ZM10.059 9.625C9.60258 9.625 9.2326 10.0167 9.2326 10.5V11.375C9.2326 11.8583 9.60258 12.25 10.059 12.25H10.8854C11.3418 12.25 11.7118 11.8583 11.7118 11.375V10.5C11.7118 10.0167 11.3418 9.625 10.8854 9.625H10.059Z" fill="#4B4B4B"/>
<path fill-rule="evenodd" clip-rule="evenodd" d="M14.191 10.5H13.3646V11.375H14.191V10.5ZM13.3646 9.625C12.9082 9.625 12.5382 10.0167 12.5382 10.5V11.375C12.5382 11.8583 12.9082 12.25 13.3646 12.25H14.191C14.6474 12.25 15.0174 11.8583 15.0174 11.375V10.5C15.0174 10.0167 14.6474 9.625 14.191 9.625H13.3646Z" fill="#4B4B4B"/>
<path fill-rule="evenodd" clip-rule="evenodd" d="M7.57984 14H6.75345V14.875H7.57984V14ZM6.75345 13.125C6.29704 13.125 5.92706 13.5167 5.92706 14V14.875C5.92706 15.3583 6.29704 15.75 6.75345 15.75H7.57984C8.03626 15.75 8.40623 15.3583 8.40623 14.875V14C8.40623 13.5167 8.03626 13.125 7.57984 13.125H6.75345Z" fill="#4B4B4B"/>
<path fill-rule="evenodd" clip-rule="evenodd" d="M10.8854 14H10.059V14.875H10.8854V14ZM10.059 13.125C9.60258 13.125 9.2326 13.5167 9.2326 14V14.875C9.2326 15.3583 9.60258 15.75 10.059 15.75H10.8854C11.3418 15.75 11.7118 15.3583 11.7118 14.875V14C11.7118 13.5167 11.3418 13.125 10.8854 13.125H10.059Z" fill="#4B4B4B"/>
<path fill-rule="evenodd" clip-rule="evenodd" d="M14.191 14H13.3646V14.875H14.191V14ZM13.3646 13.125C12.9082 13.125 12.5382 13.5167 12.5382 14V14.875C12.5382 15.3583 12.9082 15.75 13.3646 15.75H14.191C14.6474 15.75 15.0174 15.3583 15.0174 14.875V14C15.0174 13.5167 14.6474 13.125 14.191 13.125H13.3646Z" fill="#4B4B4B"/>
<path fill-rule="evenodd" clip-rule="evenodd" d="M16.2569 6.42786V16.1875C16.2569 16.6708 15.8869 17.0625 15.4305 17.0625H5.51386C5.05745 17.0625 4.68747 16.6708 4.68747 16.1875V7.16825C4.68747 6.52766 5.37131 6.15504 5.86363 6.52735C6.27013 6.83478 6.75712 7.00003 7.25663 7.00003H15.0488C15.5114 7.00003 15.9505 6.79081 16.2569 6.42786ZM6.34397 5.81537C5.3047 5.02935 3.86108 5.81593 3.86108 7.16825V16.1875C3.86108 17.154 4.60106 17.9375 5.51386 17.9375H15.4305C16.3433 17.9375 17.0833 17.154 17.0833 16.1875V6.33472C17.0833 5.53987 16.138 5.18873 15.669 5.80946C15.5182 6.00891 15.2901 6.12503 15.0488 6.12503H7.25663C6.92938 6.12503 6.61027 6.01675 6.34397 5.81537Z" fill="#4B4B4B"/>
<path fill-rule="evenodd" clip-rule="evenodd" d="M14.1909 3.9375H8.40622V5.25C8.40622 5.49163 8.22124 5.6875 7.99303 5.6875C7.76482 5.6875 7.57983 5.49163 7.57983 5.25V3.9375H5.51386C4.60106 3.9375 3.86108 4.72102 3.86108 5.6875V8.75H17.0833V5.6875C17.0833 4.72102 16.3433 3.9375 15.4305 3.9375H15.0173V5.25C15.0173 5.49163 14.8323 5.6875 14.6041 5.6875C14.3759 5.6875 14.1909 5.49163 14.1909 5.25V3.9375Z" fill="#4B4B4B"/>
<path fill-rule="evenodd" clip-rule="evenodd" d="M13.3646 4.8125H9.23261V5.25C9.23261 5.97489 8.67765 6.5625 7.99303 6.5625C7.30841 6.5625 6.75345 5.97489 6.75345 5.25V4.8125H5.51386C5.05745 4.8125 4.68747 5.20424 4.68747 5.6875V7.875H16.2569V5.6875C16.2569 5.36362 16.0907 5.08086 15.8437 4.92957V5.25C15.8437 5.97489 15.2888 6.5625 14.6041 6.5625C13.9195 6.5625 13.3646 5.97489 13.3646 5.25V4.8125ZM8.40622 3.9375V5.25C8.40622 5.49163 8.22124 5.6875 7.99303 5.6875C7.76482 5.6875 7.57983 5.49163 7.57983 5.25V3.9375H5.51386C4.60106 3.9375 3.86108 4.72102 3.86108 5.6875V8.75H17.0833V5.6875C17.0833 4.87209 16.5566 4.1869 15.8437 3.99263C15.7117 3.95664 15.5732 3.9375 15.4305 3.9375H15.0173V5.25C15.0173 5.49163 14.8323 5.6875 14.6041 5.6875C14.3759 5.6875 14.1909 5.49163 14.1909 5.25V3.9375H8.40622Z" fill="#4B4B4B"/>
<path fill-rule="evenodd" clip-rule="evenodd" d="M16.6701 8.75H4.27429V7.875H16.6701V8.75Z" fill="#4B4B4B"/>
</svg>
